<svg id="Livello_1" data-name="Livello 1" xmlns="http://www.w3.org/2000/svg" viewBox="0 0 1280 700"><defs><style>.cls-1{fill:aqua;}.cls-2{fill:#19519f;}</style></defs><rect class="cls-1" width="1280" height="72"/><rect class="cls-2" y="73" width="38.03" height="19.38"/><rect class="cls-2" x="44.36" y="73" width="38.03" height="19.38"/><rect class="cls-2" x="88.71" y="73" width="38.03" height="19.38"/><rect class="cls-2" x="133.07" y="73" width="38.03" height="19.38"/><rect class="cls-2" x="177.43" y="73" width="38.03" height="19.38"/><rect class="cls-2" x="221.78" y="73" width="38.03" height="19.38"/><rect class="cls-2" x="266.14" y="73" width="38.03" height="19.38"/><rect class="cls-2" x="310.49" y="73" width="38.03" height="19.38"/><rect class="cls-2" x="354.85" y="73" width="38.03" height="19.38"/><rect class="cls-2" x="399.21" y="73" width="38.03" height="19.38"/><rect class="cls-2" x="443.56" y="73" width="38.03" height="19.38"/><rect class="cls-2" x="487.92" y="73" width="38.03" height="19.38"/><rect class="cls-2" x="532.28" y="73" width="38.03" height="19.38"/><rect class="cls-2" x="576.63" y="73" width="38.03" height="19.38"/><rect class="cls-2" x="620.99" y="73" width="38.03" height="19.38"/><rect class="cls-2" x="665.34" y="73" width="38.03" height="19.38"/><rect class="cls-2" x="709.7" y="73" width="38.03" height="19.38"/><rect class="cls-2" x="754.06" y="73" width="38.03" height="19.38"/><rect class="cls-2" x="798.41" y="73" width="38.03" height="19.38"/><rect class="cls-2" x="842.77" y="73" width="38.03" height="19.38"/><rect class="cls-2" x="887.13" y="73" width="38.03" height="19.38"/><rect class="cls-2" x="931.48" y="73" width="38.03" height="19.38"/><rect class="cls-2" x="975.84" y="73" width="38.03" height="19.38"/><rect class="cls-2" x="1020.19" y="73" width="38.03" height="19.38"/><rect class="cls-2" x="1064.55" y="73" width="38.03" height="19.38"/><rect class="cls-2" x="1108.91" y="73" width="38.03" height="19.38"/><rect class="cls-2" x="1153.26" y="73" width="38.03" height="19.38"/><rect class="cls-2" x="1197.62" y="73" width="38.03" height="19.38"/><rect class="cls-2" x="1241.97" y="73" width="38.03" height="19.38"/><rect class="cls-2" y="99.42" width="38.03" height="19.38"/><rect class="cls-2" x="44.36" y="99.42" width="38.03" height="19.38"/><rect class="cls-2" x="88.71" y="99.42" width="38.03" height="19.38"/><rect class="cls-2" x="133.07" y="99.42" width="38.03" height="19.38"/><rect class="cls-2" x="177.43" y="99.42" width="38.03" height="19.38"/><rect class="cls-2" x="221.78" y="99.42" width="38.03" height="19.38"/><rect class="cls-2" x="266.14" y="99.42" width="38.03" height="19.38"/><rect class="cls-2" x="310.49" y="99.42" width="38.03" height="19.38"/><rect class="cls-2" x="354.85" y="99.42" width="38.03" height="19.38"/><rect class="cls-2" x="399.21" y="99.42" width="38.03" height="19.38"/><rect class="cls-2" x="443.56" y="99.42" width="38.03" height="19.38"/><rect class="cls-2" x="487.92" y="99.42" width="38.03" height="19.38"/><rect class="cls-2" x="532.28" y="99.42" width="38.03" height="19.38"/><rect class="cls-2" x="576.63" y="99.42" width="38.03" height="19.38"/><rect class="cls-2" x="620.99" y="99.42" width="38.03" height="19.38"/><rect class="cls-2" x="665.34" y="99.42" width="38.03" height="19.38"/><rect class="cls-2" x="709.7" y="99.42" width="38.03" height="19.38"/><rect class="cls-2" x="754.06" y="99.42" width="38.03" height="19.38"/><rect class="cls-2" x="798.41" y="99.42" width="38.03" height="19.38"/><rect class="cls-2" x="842.77" y="99.42" width="38.03" height="19.38"/><rect class="cls-2" x="887.13" y="99.42" width="38.03" height="19.38"/><rect class="cls-2" x="931.48" y="99.42" width="38.03" height="19.38"/><rect class="cls-2" x="975.84" y="99.42" width="38.03" height="19.38"/><rect class="cls-2" x="1020.19" y="99.42" width="38.03" height="19.38"/><rect class="cls-2" x="1064.55" y="99.42" width="38.03" height="19.38"/><rect class="cls-2" x="1108.91" y="99.42" width="38.03" height="19.38"/><rect class="cls-2" x="1153.26" y="99.42" width="38.03" height="19.38"/><rect class="cls-2" x="1197.62" y="99.42" width="38.03" height="19.38"/><rect class="cls-2" x="1241.97" y="99.42" width="38.03" height="19.38"/><rect class="cls-2" y="125.84" width="38.03" height="19.38"/><rect class="cls-2" x="44.36" y="125.84" width="38.03" height="19.38"/><rect class="cls-2" x="88.71" y="125.84" width="38.03" height="19.38"/><rect class="cls-2" x="133.07" y="125.84" width="38.03" height="19.38"/><rect class="cls-2" x="177.43" y="125.84" width="38.03" height="19.38"/><rect class="cls-2" x="221.78" y="125.84" width="38.03" height="19.38"/><rect class="cls-2" x="266.14" y="125.84" width="38.03" height="19.38"/><rect class="cls-2" x="310.49" y="125.84" width="38.03" height="19.38"/><rect class="cls-2" x="354.85" y="125.84" width="38.03" height="19.38"/><rect class="cls-2" x="399.21" y="125.84" width="38.03" height="19.38"/><rect class="cls-2" x="443.56" y="125.84" width="38.03" height="19.38"/><rect class="cls-2" x="487.92" y="125.84" width="38.03" height="19.38"/><rect class="cls-2" x="532.28" y="125.84" width="38.03" height="19.38"/><rect class="cls-2" x="576.63" y="125.84" width="38.03" height="19.38"/><rect class="cls-2" x="620.99" y="125.84" width="38.03" height="19.38"/><rect class="cls-2" x="665.34" y="125.84" width="38.03" height="19.38"/><rect class="cls-2" x="709.7" y="125.84" width="38.03" height="19.38"/><rect class="cls-2" x="754.06" y="125.84" width="38.03" height="19.38"/><rect class="cls-2" x="798.41" y="125.84" width="38.03" height="19.38"/><rect class="cls-2" x="842.77" y="125.84" width="38.03" height="19.38"/><rect class="cls-2" x="887.13" y="125.84" width="38.03" height="19.38"/><rect class="cls-2" x="931.48" y="125.84" width="38.03" height="19.38"/><rect class="cls-2" x="975.84" y="125.84" width="38.03" height="19.38"/><rect class="cls-2" x="1020.19" y="125.84" width="38.03" height="19.38"/><rect class="cls-2" x="1064.55" y="125.84" width="38.03" height="19.38"/><rect class="cls-2" x="1108.91" y="125.84" width="38.03" height="19.38"/><rect class="cls-2" x="1153.26" y="125.84" width="38.03" height="19.38"/><rect class="cls-2" x="1197.62" y="125.84" width="38.03" height="19.38"/><rect class="cls-2" x="1241.97" y="125.84" width="38.03" height="19.38"/><rect class="cls-2" y="152.25" width="38.03" height="19.38"/><rect class="cls-2" x="44.36" y="152.25" width="38.03" height="19.38"/><rect class="cls-2" x="88.71" y="152.25" width="38.03" height="19.38"/><rect class="cls-2" x="133.07" y="152.25" width="38.03" height="19.38"/><rect class="cls-2" x="177.43" y="152.25" width="38.03" height="19.38"/><rect class="cls-2" x="221.78" y="152.25" width="38.03" height="19.38"/><rect class="cls-2" x="266.14" y="152.25" width="38.03" height="19.38"/><rect class="cls-2" x="310.49" y="152.25" width="38.03" height="19.38"/><rect class="cls-2" x="354.85" y="152.25" width="38.03" height="19.38"/><rect class="cls-2" x="399.21" y="152.25" width="38.03" height="19.38"/><rect class="cls-2" x="443.56" y="152.25" width="38.03" height="19.38"/><rect class="cls-2" x="487.92" y="152.25" width="38.03" height="19.38"/><rect class="cls-2" x="532.28" y="152.25" width="38.03" height="19.38"/><rect class="cls-2" x="576.63" y="152.25" width="38.03" height="19.38"/><rect class="cls-2" x="620.99" y="152.25" width="38.03" height="19.38"/><rect class="cls-2" x="665.34" y="152.25" width="38.03" height="19.38"/><rect class="cls-2" x="709.7" y="152.25" width="38.03" height="19.38"/><rect class="cls-2" x="754.06" y="152.25" width="38.03" height="19.38"/><rect class="cls-2" x="798.41" y="152.25" width="38.03" height="19.38"/><rect class="cls-2" x="842.77" y="152.25" width="38.03" height="19.38"/><rect class="cls-2" x="887.13" y="152.25" width="38.03" height="19.38"/><rect class="cls-2" x="931.48" y="152.25" width="38.03" height="19.38"/><rect class="cls-2" x="975.84" y="152.25" width="38.03" height="19.38"/><rect class="cls-2" x="1020.19" y="152.25" width="38.03" height="19.38"/><rect class="cls-2" x="1064.55" y="152.25" width="38.03" height="19.38"/><rect class="cls-2" x="1108.91" y="152.25" width="38.03" height="19.38"/><rect class="cls-2" x="1153.26" y="152.25" width="38.03" height="19.38"/><rect class="cls-2" x="1197.62" y="152.25" width="38.03" height="19.38"/><rect class="cls-2" x="1241.97" y="152.25" width="38.03" height="19.38"/><rect class="cls-2" y="178.67" width="38.03" height="19.38"/><rect class="cls-2" x="44.36" y="178.67" width="38.03" height="19.38"/><rect class="cls-2" x="88.71" y="178.67" width="38.03" height="19.38"/><rect class="cls-2" x="133.07" y="178.67" width="38.03" height="19.38"/><rect class="cls-2" x="177.43" y="178.67" width="38.03" height="19.38"/><rect class="cls-2" x="221.78" y="178.67" width="38.03" height="19.38"/><rect class="cls-2" x="266.14" y="178.67" width="38.03" height="19.38"/><rect class="cls-2" x="310.49" y="178.67" width="38.03" height="19.38"/><rect class="cls-2" x="354.85" y="178.67" width="38.03" height="19.38"/><rect class="cls-2" x="399.21" y="178.67" width="38.03" height="19.38"/><rect class="cls-2" x="443.56" y="178.67" width="38.03" height="19.38"/><rect class="cls-2" x="487.92" y="178.67" width="38.03" height="19.38"/><rect class="cls-2" x="532.28" y="178.67" width="38.03" height="19.38"/><rect class="cls-2" x="576.63" y="178.67" width="38.03" height="19.38"/><rect class="cls-2" x="620.99" y="178.67" width="38.03" height="19.38"/><rect class="cls-2" x="665.34" y="178.67" width="38.03" height="19.38"/><rect class="cls-2" x="709.7" y="178.67" width="38.03" height="19.38"/><rect class="cls-2" x="754.06" y="178.67" width="38.03" height="19.38"/><rect class="cls-2" x="798.41" y="178.67" width="38.03" height="19.38"/><rect class="cls-2" x="842.77" y="178.67" width="38.03" height="19.38"/><rect class="cls-2" x="887.13" y="178.67" width="38.03" height="19.38"/><rect class="cls-2" x="931.48" y="178.67" width="38.03" height="19.38"/><rect class="cls-2" x="975.84" y="178.67" width="38.03" height="19.38"/><rect class="cls-2" x="1020.19" y="178.67" width="38.03" height="19.38"/><rect class="cls-2" x="1064.55" y="178.67" width="38.03" height="19.38"/><rect class="cls-2" x="1108.91" y="178.67" width="38.03" height="19.38"/><rect class="cls-2" x="1153.26" y="178.67" width="38.03" height="19.38"/><rect class="cls-2" x="1197.62" y="178.67" width="38.03" height="19.38"/><rect class="cls-2" x="1241.97" y="178.67" width="38.03" height="19.38"/><rect class="cls-2" y="205.09" width="38.03" height="19.38"/><rect class="cls-2" x="44.36" y="205.09" width="38.03" height="19.38"/><rect class="cls-2" x="88.71" y="205.09" width="38.03" height="19.38"/><rect class="cls-2" x="133.07" y="205.09" width="38.03" height="19.38"/><rect class="cls-2" x="177.43" y="205.09" width="38.03" height="19.38"/><rect class="cls-2" x="221.78" y="205.09" width="38.03" height="19.38"/><rect class="cls-2" x="266.14" y="205.09" width="38.03" height="19.38"/><rect class="cls-2" x="310.49" y="205.09" width="38.03" height="19.38"/><rect class="cls-2" x="354.85" y="205.09" width="38.03" height="19.38"/><rect class="cls-2" x="399.21" y="205.09" width="38.03" height="19.38"/><rect class="cls-2" x="443.56" y="205.09" width="38.03" height="19.38"/><rect class="cls-2" x="487.92" y="205.09" width="38.03" height="19.38"/><rect class="cls-2" x="532.28" y="205.09" width="38.03" height="19.38"/><rect class="cls-2" x="576.63" y="205.09" width="38.03" height="19.38"/><rect class="cls-2" x="620.99" y="205.09" width="38.03" height="19.38"/><rect class="cls-2" x="665.34" y="205.09" width="38.03" height="19.38"/><rect class="cls-2" x="709.7" y="205.09" width="38.03" height="19.38"/><rect class="cls-2" x="754.06" y="205.09" width="38.03" height="19.38"/><rect class="cls-2" x="798.41" y="205.09" width="38.03" height="19.38"/><rect class="cls-2" x="842.77" y="205.09" width="38.03" height="19.38"/><rect class="cls-2" x="887.13" y="205.09" width="38.03" height="19.38"/><rect class="cls-2" x="931.48" y="205.09" width="38.03" height="19.38"/><rect class="cls-2" x="975.84" y="205.09" width="38.03" height="19.38"/><rect class="cls-2" x="1020.19" y="205.09" width="38.03" height="19.38"/><rect class="cls-2" x="1064.55" y="205.09" width="38.03" height="19.38"/><rect class="cls-2" x="1108.91" y="205.09" width="38.03" height="19.38"/><rect class="cls-2" x="1153.26" y="205.09" width="38.03" height="19.38"/><rect class="cls-2" x="1197.62" y="205.09" width="38.03" height="19.38"/><rect class="cls-2" x="1241.97" y="205.09" width="38.03" height="19.38"/><rect class="cls-2" y="231.51" width="38.03" height="19.38"/><rect class="cls-2" x="44.36" y="231.51" width="38.03" height="19.38"/><rect class="cls-2" x="88.71" y="231.51" width="38.03" height="19.38"/><rect class="cls-2" x="133.07" y="231.51" width="38.03" height="19.38"/><rect class="cls-2" x="177.43" y="231.51" width="38.03" height="19.38"/><rect class="cls-2" x="221.78" y="231.51" width="38.03" height="19.38"/><rect class="cls-2" x="266.14" y="231.51" width="38.03" height="19.38"/><rect class="cls-2" x="310.49" y="231.51" width="38.03" height="19.38"/><rect class="cls-2" x="354.85" y="231.51" width="38.03" height="19.38"/><rect class="cls-2" x="399.21" y="231.51" width="38.03" height="19.38"/><rect class="cls-2" x="443.56" y="231.51" width="38.03" height="19.38"/><rect class="cls-2" x="487.92" y="231.51" width="38.03" height="19.38"/><rect class="cls-2" x="532.28" y="231.51" width="38.03" height="19.38"/><rect class="cls-2" x="576.63" y="231.51" width="38.03" height="19.38"/><rect class="cls-2" x="620.99" y="231.51" width="38.03" height="19.38"/><rect class="cls-2" x="665.34" y="231.51" width="38.03" height="19.38"/><rect class="cls-2" x="709.7" y="231.51" width="38.03" height="19.38"/><rect class="cls-2" x="754.06" y="231.51" width="38.03" height="19.38"/><rect class="cls-2" x="798.41" y="231.51" width="38.03" height="19.38"/><rect class="cls-2" x="842.77" y="231.51" width="38.03" height="19.38"/><rect class="cls-2" x="887.13" y="231.51" width="38.03" height="19.38"/><rect class="cls-2" x="931.48" y="231.51" width="38.03" height="19.38"/><rect class="cls-2" x="975.84" y="231.51" width="38.03" height="19.38"/><rect class="cls-2" x="1020.19" y="231.51" width="38.03" height="19.38"/><rect class="cls-2" x="1064.55" y="231.51" width="38.03" height="19.38"/><rect class="cls-2" x="1108.91" y="231.51" width="38.03" height="19.38"/><rect class="cls-2" x="1153.26" y="231.51" width="38.03" height="19.38"/><rect class="cls-2" x="1197.62" y="231.51" width="38.03" height="19.38"/><rect class="cls-2" x="1241.97" y="231.51" width="38.03" height="19.38"/><rect class="cls-2" y="257.93" width="38.03" height="19.38"/><rect class="cls-2" x="44.36" y="257.93" width="38.03" height="19.38"/><rect class="cls-2" x="88.71" y="257.93" width="38.03" height="19.38"/><rect class="cls-2" x="133.07" y="257.93" width="38.03" height="19.38"/><rect class="cls-2" x="177.43" y="257.93" width="38.03" height="19.38"/><rect class="cls-2" x="221.78" y="257.93" width="38.03" height="19.38"/><rect class="cls-2" x="266.14" y="257.93" width="38.03" height="19.38"/><rect class="cls-2" x="310.49" y="257.93" width="38.03" height="19.38"/><rect class="cls-2" x="354.85" y="257.93" width="38.03" height="19.38"/><rect class="cls-2" x="399.21" y="257.93" width="38.03" height="19.38"/><rect class="cls-2" x="443.56" y="257.93" width="38.03" height="19.38"/><rect class="cls-2" x="487.92" y="257.93" width="38.03" height="19.38"/><rect class="cls-2" x="532.28" y="257.93" width="38.03" height="19.38"/><rect class="cls-2" x="576.63" y="257.93" width="38.03" height="19.38"/><rect class="cls-2" x="620.99" y="257.93" width="38.03" height="19.38"/><rect class="cls-2" x="665.34" y="257.93" width="38.03" height="19.38"/><rect class="cls-2" x="709.7" y="257.93" width="38.03" height="19.38"/><rect class="cls-2" x="754.06" y="257.93" width="38.03" height="19.38"/><rect class="cls-2" x="798.41" y="257.93" width="38.03" height="19.38"/><rect class="cls-2" x="842.77" y="257.93" width="38.03" height="19.38"/><rect class="cls-2" x="887.13" y="257.93" width="38.03" height="19.38"/><rect class="cls-2" x="931.48" y="257.93" width="38.03" height="19.38"/><rect class="cls-2" x="975.84" y="257.93" width="38.03" height="19.38"/><rect class="cls-2" x="1020.19" y="257.93" width="38.03" height="19.38"/><rect class="cls-2" x="1064.55" y="257.93" width="38.03" height="19.38"/><rect class="cls-2" x="1108.91" y="257.93" width="38.03" height="19.38"/><rect class="cls-2" x="1153.26" y="257.93" width="38.03" height="19.38"/><rect class="cls-2" x="1197.62" y="257.93" width="38.03" height="19.38"/><rect class="cls-2" x="1241.97" y="257.93" width="38.03" height="19.38"/><rect class="cls-2" y="284.35" width="38.03" height="19.38"/><rect class="cls-2" x="44.36" y="284.35" width="38.03" height="19.38"/><rect class="cls-2" x="88.71" y="284.35" width="38.03" height="19.38"/><rect class="cls-2" x="133.07" y="284.35" width="38.03" height="19.38"/><rect class="cls-2" x="177.43" y="284.35" width="38.03" height="19.38"/><rect class="cls-2" x="221.78" y="284.35" width="38.03" height="19.38"/><rect class="cls-2" x="266.14" y="284.35" width="38.03" height="19.38"/><rect class="cls-2" x="310.49" y="284.35" width="38.03" height="19.38"/><rect class="cls-2" x="354.85" y="284.35" width="38.03" height="19.38"/><rect class="cls-2" x="399.21" y="284.35" width="38.03" height="19.38"/><rect class="cls-2" x="443.56" y="284.35" width="38.03" height="19.38"/><rect class="cls-2" x="487.92" y="284.35" width="38.03" height="19.38"/><rect class="cls-2" x="532.28" y="284.35" width="38.03" height="19.38"/><rect class="cls-2" x="576.63" y="284.35" width="38.03" height="19.38"/><rect class="cls-2" x="620.99" y="284.35" width="38.03" height="19.38"/><rect class="cls-2" x="665.34" y="284.35" width="38.03" height="19.38"/><rect class="cls-2" x="709.7" y="284.35" width="38.03" height="19.38"/><rect class="cls-2" x="754.06" y="284.35" width="38.03" height="19.38"/><rect class="cls-2" x="798.41" y="284.35" width="38.03" height="19.38"/><rect class="cls-2" x="842.77" y="284.35" width="38.03" height="19.38"/><rect class="cls-2" x="887.13" y="284.35" width="38.03" height="19.38"/><rect class="cls-2" x="931.48" y="284.35" width="38.03" height="19.38"/><rect class="cls-2" x="975.84" y="284.35" width="38.03" height="19.38"/><rect class="cls-2" x="1020.19" y="284.35" width="38.03" height="19.38"/><rect class="cls-2" x="1064.55" y="284.35" width="38.03" height="19.38"/><rect class="cls-2" x="1108.91" y="284.35" width="38.03" height="19.38"/><rect class="cls-2" x="1153.26" y="284.35" width="38.03" height="19.38"/><rect class="cls-2" x="1197.62" y="284.35" width="38.03" height="19.38"/><rect class="cls-2" x="1241.97" y="284.35" width="38.03" height="19.38"/><rect class="cls-2" y="310.76" width="38.03" height="19.38"/><rect class="cls-2" x="44.36" y="310.77" width="38.03" height="19.38"/><rect class="cls-2" x="88.71" y="310.77" width="38.03" height="19.38"/><rect class="cls-2" x="133.07" y="310.77" width="38.03" height="19.38"/><rect class="cls-2" x="177.43" y="310.77" width="38.03" height="19.38"/><rect class="cls-2" x="221.78" y="310.77" width="38.03" height="19.38"/><rect class="cls-2" x="266.14" y="310.77" width="38.03" height="19.38"/><rect class="cls-2" x="310.49" y="310.77" width="38.03" height="19.38"/><rect class="cls-2" x="354.85" y="310.77" width="38.03" height="19.38"/><rect class="cls-2" x="399.21" y="310.77" width="38.03" height="19.38"/><rect class="cls-2" x="443.56" y="310.77" width="38.03" height="19.38"/><rect class="cls-2" x="487.92" y="310.77" width="38.03" height="19.38"/><rect class="cls-2" x="532.28" y="310.77" width="38.03" height="19.38"/><rect class="cls-2" x="576.63" y="310.77" width="38.03" height="19.38"/><rect class="cls-2" x="620.99" y="310.77" width="38.03" height="19.38"/><rect class="cls-2" x="665.34" y="310.77" width="38.03" height="19.38"/><rect class="cls-2" x="709.7" y="310.77" width="38.03" height="19.38"/><rect class="cls-2" x="754.06" y="310.77" width="38.03" height="19.38"/><rect class="cls-2" x="798.41" y="310.77" width="38.03" height="19.38"/><rect class="cls-2" x="842.77" y="310.77" width="38.03" height="19.38"/><rect class="cls-2" x="887.13" y="310.77" width="38.03" height="19.38"/><rect class="cls-2" x="931.48" y="310.77" width="38.03" height="19.38"/><rect class="cls-2" x="975.84" y="310.77" width="38.03" height="19.38"/><rect class="cls-2" x="1020.19" y="310.77" width="38.03" height="19.38"/><rect class="cls-2" x="1064.55" y="310.77" width="38.03" height="19.38"/><rect class="cls-2" x="1108.91" y="310.77" width="38.03" height="19.38"/><rect class="cls-2" x="1153.26" y="310.77" width="38.03" height="19.38"/><rect class="cls-2" x="1197.62" y="310.77" width="38.03" height="19.38"/><rect class="cls-2" x="1241.97" y="310.76" width="38.03" height="19.38"/><rect class="cls-2" y="337.18" width="38.03" height="19.38"/><rect class="cls-2" x="44.36" y="337.18" width="38.03" height="19.38"/><rect class="cls-2" x="88.71" y="337.18" width="38.03" height="19.38"/><rect class="cls-2" x="133.07" y="337.18" width="38.03" height="19.38"/><rect class="cls-2" x="177.43" y="337.18" width="38.03" height="19.38"/><rect class="cls-2" x="221.78" y="337.18" width="38.03" height="19.38"/><rect class="cls-2" x="266.14" y="337.18" width="38.03" height="19.38"/><rect class="cls-2" x="310.49" y="337.18" width="38.03" height="19.38"/><rect class="cls-2" x="354.85" y="337.18" width="38.03" height="19.38"/><rect class="cls-2" x="399.21" y="337.18" width="38.03" height="19.38"/><rect class="cls-2" x="443.56" y="337.18" width="38.03" height="19.38"/><rect class="cls-2" x="487.92" y="337.18" width="38.03" height="19.38"/><rect class="cls-2" x="532.28" y="337.18" width="38.03" height="19.38"/><rect class="cls-2" x="576.63" y="337.18" width="38.03" height="19.38"/><rect class="cls-2" x="620.99" y="337.18" width="38.03" height="19.38"/><rect class="cls-2" x="665.34" y="337.18" width="38.03" height="19.38"/><rect class="cls-2" x="709.7" y="337.18" width="38.03" height="19.38"/><rect class="cls-2" x="754.06" y="337.18" width="38.03" height="19.38"/><rect class="cls-2" x="798.41" y="337.18" width="38.03" height="19.38"/><rect class="cls-2" x="842.77" y="337.18" width="38.03" height="19.38"/><rect class="cls-2" x="887.13" y="337.18" width="38.03" height="19.38"/><rect class="cls-2" x="931.48" y="337.18" width="38.03" height="19.38"/><rect class="cls-2" x="975.84" y="337.18" width="38.03" height="19.38"/><rect class="cls-2" x="1020.19" y="337.18" width="38.03" height="19.38"/><rect class="cls-2" x="1064.55" y="337.18" width="38.03" height="19.38"/><rect class="cls-2" x="1108.91" y="337.18" width="38.03" height="19.38"/><rect class="cls-2" x="1153.26" y="337.18" width="38.03" height="19.38"/><rect class="cls-2" x="1197.62" y="337.18" width="38.03" height="19.38"/><rect class="cls-2" x="1241.97" y="337.18" width="38.03" height="19.38"/><rect class="cls-2" y="363.6" width="38.03" height="19.38"/><rect class="cls-2" x="44.36" y="363.6" width="38.03" height="19.38"/><rect class="cls-2" x="88.71" y="363.6" width="38.03" height="19.38"/><rect class="cls-2" x="133.07" y="363.6" width="38.03" height="19.38"/><rect class="cls-2" x="177.43" y="363.6" width="38.03" height="19.38"/><rect class="cls-2" x="221.78" y="363.6" width="38.03" height="19.38"/><rect class="cls-2" x="266.14" y="363.6" width="38.03" height="19.38"/><rect class="cls-2" x="310.49" y="363.6" width="38.03" height="19.38"/><rect class="cls-2" x="354.85" y="363.6" width="38.03" height="19.38"/><rect class="cls-2" x="399.21" y="363.6" width="38.03" height="19.38"/><rect class="cls-2" x="443.56" y="363.6" width="38.03" height="19.38"/><rect class="cls-2" x="487.92" y="363.6" width="38.03" height="19.38"/><rect class="cls-2" x="532.28" y="363.6" width="38.03" height="19.38"/><rect class="cls-2" x="576.63" y="363.6" width="38.03" height="19.38"/><rect class="cls-2" x="620.99" y="363.6" width="38.03" height="19.38"/><rect class="cls-2" x="665.34" y="363.6" width="38.03" height="19.38"/><rect class="cls-2" x="709.7" y="363.6" width="38.03" height="19.38"/><rect class="cls-2" x="754.06" y="363.6" width="38.03" height="19.38"/><rect class="cls-2" x="798.41" y="363.6" width="38.03" height="19.38"/><rect class="cls-2" x="842.77" y="363.6" width="38.03" height="19.38"/><rect class="cls-2" x="887.13" y="363.6" width="38.03" height="19.38"/><rect class="cls-2" x="931.48" y="363.6" width="38.03" height="19.38"/><rect class="cls-2" x="975.84" y="363.6" width="38.03" height="19.38"/><rect class="cls-2" x="1020.19" y="363.6" width="38.03" height="19.38"/><rect class="cls-2" x="1064.55" y="363.6" width="38.03" height="19.38"/><rect class="cls-2" x="1108.91" y="363.6" width="38.03" height="19.38"/><rect class="cls-2" x="1153.26" y="363.6" width="38.03" height="19.38"/><rect class="cls-2" x="1197.62" y="363.6" width="38.03" height="19.38"/><rect class="cls-2" x="1241.97" y="363.6" width="38.03" height="19.38"/><rect class="cls-2" y="390.02" width="38.03" height="19.38"/><rect class="cls-2" x="44.36" y="390.02" width="38.03" height="19.38"/><rect class="cls-2" x="88.71" y="390.02" width="38.03" height="19.38"/><rect class="cls-2" x="133.07" y="390.02" width="38.03" height="19.38"/><rect class="cls-2" x="177.43" y="390.02" width="38.03" height="19.38"/><rect class="cls-2" x="221.78" y="390.02" width="38.03" height="19.38"/><rect class="cls-2" x="266.14" y="390.02" width="38.03" height="19.38"/><rect class="cls-2" x="310.49" y="390.02" width="38.03" height="19.38"/><rect class="cls-2" x="354.85" y="390.02" width="38.03" height="19.38"/><rect class="cls-2" x="399.21" y="390.02" width="38.03" height="19.38"/><rect class="cls-2" x="443.56" y="390.02" width="38.03" height="19.38"/><rect class="cls-2" x="487.92" y="390.02" width="38.03" height="19.38"/><rect class="cls-2" x="532.28" y="390.02" width="38.03" height="19.38"/><rect class="cls-2" x="576.63" y="390.02" width="38.03" height="19.38"/><rect class="cls-2" x="620.99" y="390.02" width="38.03" height="19.38"/><rect class="cls-2" x="665.34" y="390.02" width="38.03" height="19.38"/><rect class="cls-2" x="709.7" y="390.02" width="38.03" height="19.38"/><rect class="cls-2" x="754.06" y="390.02" width="38.03" height="19.38"/><rect class="cls-2" x="798.41" y="390.02" width="38.03" height="19.38"/><rect class="cls-2" x="842.77" y="390.02" width="38.03" height="19.38"/><rect class="cls-2" x="887.13" y="390.02" width="38.03" height="19.38"/><rect class="cls-2" x="931.48" y="390.02" width="38.03" height="19.38"/><rect class="cls-2" x="975.84" y="390.02" width="38.03" height="19.38"/><rect class="cls-2" x="1020.19" y="390.02" width="38.03" height="19.38"/><rect class="cls-2" x="1064.55" y="390.02" width="38.03" height="19.38"/><rect class="cls-2" x="1108.91" y="390.02" width="38.03" height="19.38"/><rect class="cls-2" x="1153.26" y="390.02" width="38.03" height="19.38"/><rect class="cls-2" x="1197.62" y="390.02" width="38.03" height="19.38"/><rect class="cls-2" x="1241.97" y="390.02" width="38.03" height="19.38"/><rect class="cls-2" y="416.44" width="38.03" height="19.38"/><rect class="cls-2" x="44.36" y="416.44" width="38.03" height="19.38"/><rect class="cls-2" x="88.71" y="416.44" width="38.03" height="19.38"/><rect class="cls-2" x="133.07" y="416.44" width="38.03" height="19.38"/><rect class="cls-2" x="177.43" y="416.44" width="38.03" height="19.38"/><rect class="cls-2" x="221.78" y="416.44" width="38.03" height="19.38"/><rect class="cls-2" x="266.14" y="416.44" width="38.03" height="19.38"/><rect class="cls-2" x="310.49" y="416.44" width="38.03" height="19.38"/><rect class="cls-2" x="354.85" y="416.44" width="38.03" height="19.38"/><rect class="cls-2" x="399.21" y="416.44" width="38.03" height="19.38"/><rect class="cls-2" x="443.56" y="416.44" width="38.03" height="19.38"/><rect class="cls-2" x="487.92" y="416.44" width="38.03" height="19.38"/><rect class="cls-2" x="532.28" y="416.44" width="38.03" height="19.38"/><rect class="cls-2" x="576.63" y="416.44" width="38.03" height="19.38"/><rect class="cls-2" x="620.99" y="416.44" width="38.03" height="19.38"/><rect class="cls-2" x="665.34" y="416.44" width="38.03" height="19.38"/><rect class="cls-2" x="709.7" y="416.44" width="38.03" height="19.38"/><rect class="cls-2" x="754.06" y="416.44" width="38.03" height="19.38"/><rect class="cls-2" x="798.41" y="416.44" width="38.03" height="19.38"/><rect class="cls-2" x="842.77" y="416.44" width="38.03" height="19.38"/><rect class="cls-2" x="887.13" y="416.44" width="38.03" height="19.38"/><rect class="cls-2" x="931.48" y="416.44" width="38.03" height="19.38"/><rect class="cls-2" x="975.84" y="416.44" width="38.03" height="19.38"/><rect class="cls-2" x="1020.19" y="416.44" width="38.03" height="19.38"/><rect class="cls-2" x="1064.55" y="416.44" width="38.03" height="19.38"/><rect class="cls-2" x="1108.91" y="416.44" width="38.03" height="19.38"/><rect class="cls-2" x="1153.26" y="416.44" width="38.03" height="19.38"/><rect class="cls-2" x="1197.62" y="416.44" width="38.03" height="19.38"/><rect class="cls-2" x="1241.97" y="416.44" width="38.03" height="19.38"/><rect class="cls-2" y="442.86" width="38.03" height="19.38"/><rect class="cls-2" x="44.36" y="442.86" width="38.03" height="19.38"/><rect class="cls-2" x="88.71" y="442.86" width="38.03" height="19.38"/><rect class="cls-2" x="133.07" y="442.86" width="38.03" height="19.38"/><rect class="cls-2" x="177.43" y="442.86" width="38.03" height="19.38"/><rect class="cls-2" x="221.78" y="442.86" width="38.03" height="19.38"/><rect class="cls-2" x="266.14" y="442.86" width="38.03" height="19.38"/><rect class="cls-2" x="310.49" y="442.86" width="38.03" height="19.38"/><rect class="cls-2" x="354.85" y="442.86" width="38.03" height="19.38"/><rect class="cls-2" x="399.21" y="442.86" width="38.03" height="19.38"/><rect class="cls-2" x="443.56" y="442.86" width="38.03" height="19.38"/><rect class="cls-2" x="487.92" y="442.86" width="38.03" height="19.38"/><rect class="cls-2" x="532.28" y="442.86" width="38.03" height="19.38"/><rect class="cls-2" x="576.63" y="442.86" width="38.03" height="19.38"/><rect class="cls-2" x="620.99" y="442.86" width="38.03" height="19.38"/><rect class="cls-2" x="665.34" y="442.86" width="38.03" height="19.38"/><rect class="cls-2" x="709.7" y="442.86" width="38.03" height="19.38"/><rect class="cls-2" x="754.06" y="442.86" width="38.03" height="19.38"/><rect class="cls-2" x="798.41" y="442.86" width="38.03" height="19.38"/><rect class="cls-2" x="842.77" y="442.86" width="38.03" height="19.38"/><rect class="cls-2" x="887.13" y="442.86" width="38.03" height="19.38"/><rect class="cls-2" x="931.48" y="442.86" width="38.03" height="19.38"/><rect class="cls-2" x="975.84" y="442.86" width="38.03" height="19.38"/><rect class="cls-2" x="1020.19" y="442.86" width="38.03" height="19.38"/><rect class="cls-2" x="1064.55" y="442.86" width="38.03" height="19.38"/><rect class="cls-2" x="1108.91" y="442.86" width="38.03" height="19.38"/><rect class="cls-2" x="1153.26" y="442.86" width="38.03" height="19.38"/><rect class="cls-2" x="1197.62" y="442.86" width="38.03" height="19.38"/><rect class="cls-2" x="1241.97" y="442.86" width="38.03" height="19.38"/><rect class="cls-2" y="469.27" width="38.03" height="19.38"/><rect class="cls-2" x="44.36" y="469.28" width="38.03" height="19.38"/><rect class="cls-2" x="88.71" y="469.28" width="38.03" height="19.38"/><rect class="cls-2" x="133.07" y="469.28" width="38.03" height="19.38"/><rect class="cls-2" x="177.43" y="469.28" width="38.03" height="19.38"/><rect class="cls-2" x="221.78" y="469.28" width="38.03" height="19.38"/><rect class="cls-2" x="266.14" y="469.28" width="38.03" height="19.38"/><rect class="cls-2" x="310.49" y="469.28" width="38.03" height="19.38"/><rect class="cls-2" x="354.85" y="469.28" width="38.03" height="19.38"/><rect class="cls-2" x="399.21" y="469.28" width="38.03" height="19.38"/><rect class="cls-2" x="443.56" y="469.28" width="38.03" height="19.38"/><rect class="cls-2" x="487.92" y="469.28" width="38.03" height="19.38"/><rect class="cls-2" x="532.28" y="469.28" width="38.03" height="19.38"/><rect class="cls-2" x="576.63" y="469.28" width="38.03" height="19.38"/><rect class="cls-2" x="620.99" y="469.28" width="38.03" height="19.38"/><rect class="cls-2" x="665.34" y="469.28" width="38.03" height="19.38"/><rect class="cls-2" x="709.7" y="469.28" width="38.03" height="19.38"/><rect class="cls-2" x="754.06" y="469.28" width="38.03" height="19.38"/><rect class="cls-2" x="798.41" y="469.28" width="38.03" height="19.38"/><rect class="cls-2" x="842.77" y="469.28" width="38.03" height="19.38"/><rect class="cls-2" x="887.13" y="469.28" width="38.03" height="19.38"/><rect class="cls-2" x="931.48" y="469.28" width="38.03" height="19.38"/><rect class="cls-2" x="975.84" y="469.28" width="38.03" height="19.38"/><rect class="cls-2" x="1020.19" y="469.28" width="38.03" height="19.38"/><rect class="cls-2" x="1064.55" y="469.28" width="38.03" height="19.38"/><rect class="cls-2" x="1108.91" y="469.28" width="38.03" height="19.38"/><rect class="cls-2" x="1153.26" y="469.28" width="38.03" height="19.38"/><rect class="cls-2" x="1197.62" y="469.28" width="38.03" height="19.38"/><rect class="cls-2" x="1241.97" y="469.27" width="38.03" height="19.38"/><rect class="cls-2" y="495.69" width="38.03" height="19.38"/><rect class="cls-2" x="44.36" y="495.69" width="38.03" height="19.38"/><rect class="cls-2" x="88.71" y="495.69" width="38.03" height="19.38"/><rect class="cls-2" x="133.07" y="495.69" width="38.03" height="19.38"/><rect class="cls-2" x="177.43" y="495.69" width="38.03" height="19.38"/><rect class="cls-2" x="221.78" y="495.69" width="38.03" height="19.38"/><rect class="cls-2" x="266.14" y="495.69" width="38.03" height="19.38"/><rect class="cls-2" x="310.49" y="495.69" width="38.03" height="19.38"/><rect class="cls-2" x="354.85" y="495.69" width="38.03" height="19.38"/><rect class="cls-2" x="399.21" y="495.69" width="38.03" height="19.38"/><rect class="cls-2" x="443.56" y="495.69" width="38.03" height="19.38"/><rect class="cls-2" x="487.92" y="495.69" width="38.03" height="19.38"/><rect class="cls-2" x="532.28" y="495.69" width="38.03" height="19.38"/><rect class="cls-2" x="576.63" y="495.69" width="38.03" height="19.38"/><rect class="cls-2" x="620.99" y="495.69" width="38.03" height="19.38"/><rect class="cls-2" x="665.34" y="495.69" width="38.03" height="19.38"/><rect class="cls-2" x="709.7" y="495.69" width="38.03" height="19.38"/><rect class="cls-2" x="754.06" y="495.69" width="38.03" height="19.38"/><rect class="cls-2" x="798.41" y="495.69" width="38.03" height="19.38"/><rect class="cls-2" x="842.77" y="495.69" width="38.03" height="19.38"/><rect class="cls-2" x="887.13" y="495.69" width="38.03" height="19.38"/><rect class="cls-2" x="931.48" y="495.69" width="38.03" height="19.38"/><rect class="cls-2" x="975.84" y="495.69" width="38.03" height="19.38"/><rect class="cls-2" x="1020.19" y="495.69" width="38.03" height="19.38"/><rect class="cls-2" x="1064.55" y="495.69" width="38.03" height="19.38"/><rect class="cls-2" x="1108.91" y="495.69" width="38.03" height="19.38"/><rect class="cls-2" x="1153.26" y="495.69" width="38.03" height="19.38"/><rect class="cls-2" x="1197.62" y="495.69" width="38.03" height="19.38"/><rect class="cls-2" x="1241.97" y="495.69" width="38.03" height="19.38"/><rect class="cls-2" y="522.11" width="38.03" height="19.38"/><rect class="cls-2" x="44.36" y="522.11" width="38.03" height="19.38"/><rect class="cls-2" x="88.71" y="522.11" width="38.03" height="19.38"/><rect class="cls-2" x="133.07" y="522.11" width="38.03" height="19.38"/><rect class="cls-2" x="177.43" y="522.11" width="38.03" height="19.38"/><rect class="cls-2" x="221.78" y="522.11" width="38.03" height="19.38"/><rect class="cls-2" x="266.14" y="522.11" width="38.03" height="19.38"/><rect class="cls-2" x="310.49" y="522.11" width="38.03" height="19.38"/><rect class="cls-2" x="354.85" y="522.11" width="38.03" height="19.38"/><rect class="cls-2" x="399.21" y="522.11" width="38.03" height="19.38"/><rect class="cls-2" x="443.56" y="522.11" width="38.03" height="19.38"/><rect class="cls-2" x="487.92" y="522.11" width="38.03" height="19.38"/><rect class="cls-2" x="532.28" y="522.11" width="38.03" height="19.38"/><rect class="cls-2" x="576.63" y="522.11" width="38.03" height="19.38"/><rect class="cls-2" x="620.99" y="522.11" width="38.03" height="19.38"/><rect class="cls-2" x="665.34" y="522.11" width="38.03" height="19.38"/><rect class="cls-2" x="709.7" y="522.11" width="38.03" height="19.38"/><rect class="cls-2" x="754.06" y="522.11" width="38.03" height="19.38"/><rect class="cls-2" x="798.41" y="522.11" width="38.03" height="19.38"/><rect class="cls-2" x="842.77" y="522.11" width="38.03" height="19.38"/><rect class="cls-2" x="887.13" y="522.11" width="38.03" height="19.38"/><rect class="cls-2" x="931.48" y="522.11" width="38.03" height="19.38"/><rect class="cls-2" x="975.84" y="522.11" width="38.03" height="19.38"/><rect class="cls-2" x="1020.19" y="522.11" width="38.03" height="19.38"/><rect class="cls-2" x="1064.55" y="522.11" width="38.03" height="19.38"/><rect class="cls-2" x="1108.91" y="522.11" width="38.03" height="19.38"/><rect class="cls-2" x="1153.26" y="522.11" width="38.03" height="19.38"/><rect class="cls-2" x="1197.62" y="522.11" width="38.03" height="19.38"/><rect class="cls-2" x="1241.97" y="522.11" width="38.03" height="19.38"/><rect class="cls-2" y="548.53" width="38.03" height="19.38"/><rect class="cls-2" x="44.36" y="548.53" width="38.03" height="19.38"/><rect class="cls-2" x="88.71" y="548.53" width="38.03" height="19.38"/><rect class="cls-2" x="133.07" y="548.53" width="38.03" height="19.38"/><rect class="cls-2" x="177.43" y="548.53" width="38.03" height="19.38"/><rect class="cls-2" x="221.78" y="548.53" width="38.03" height="19.38"/><rect class="cls-2" x="266.14" y="548.53" width="38.03" height="19.38"/><rect class="cls-2" x="310.49" y="548.53" width="38.03" height="19.38"/><rect class="cls-2" x="354.85" y="548.53" width="38.03" height="19.38"/><rect class="cls-2" x="399.21" y="548.53" width="38.03" height="19.38"/><rect class="cls-2" x="443.56" y="548.53" width="38.03" height="19.38"/><rect class="cls-2" x="487.92" y="548.53" width="38.03" height="19.38"/><rect class="cls-2" x="532.28" y="548.53" width="38.03" height="19.38"/><rect class="cls-2" x="576.63" y="548.53" width="38.03" height="19.38"/><rect class="cls-2" x="620.99" y="548.53" width="38.03" height="19.38"/><rect class="cls-2" x="665.34" y="548.53" width="38.03" height="19.38"/><rect class="cls-2" x="709.7" y="548.53" width="38.03" height="19.38"/><rect class="cls-2" x="754.06" y="548.53" width="38.03" height="19.38"/><rect class="cls-2" x="798.41" y="548.53" width="38.03" height="19.38"/><rect class="cls-2" x="842.77" y="548.53" width="38.03" height="19.38"/><rect class="cls-2" x="887.13" y="548.53" width="38.03" height="19.38"/><rect class="cls-2" x="931.48" y="548.53" width="38.03" height="19.38"/><rect class="cls-2" x="975.84" y="548.53" width="38.03" height="19.38"/><rect class="cls-2" x="1020.19" y="548.53" width="38.03" height="19.38"/><rect class="cls-2" x="1064.55" y="548.53" width="38.03" height="19.38"/><rect class="cls-2" x="1108.91" y="548.53" width="38.03" height="19.38"/><rect class="cls-2" x="1153.26" y="548.53" width="38.03" height="19.38"/><rect class="cls-2" x="1197.62" y="548.53" width="38.03" height="19.38"/><rect class="cls-2" x="1241.97" y="548.53" width="38.03" height="19.38"/><rect class="cls-2" y="574.95" width="38.03" height="19.38"/><rect class="cls-2" x="44.36" y="574.95" width="38.03" height="19.38"/><rect class="cls-2" x="88.71" y="574.95" width="38.03" height="19.38"/><rect class="cls-2" x="133.07" y="574.95" width="38.03" height="19.38"/><rect class="cls-2" x="177.43" y="574.95" width="38.03" height="19.38"/><rect class="cls-2" x="221.78" y="574.95" width="38.03" height="19.38"/><rect class="cls-2" x="266.14" y="574.95" width="38.03" height="19.38"/><rect class="cls-2" x="310.49" y="574.95" width="38.03" height="19.38"/><rect class="cls-2" x="354.85" y="574.95" width="38.03" height="19.38"/><rect class="cls-2" x="399.21" y="574.95" width="38.03" height="19.38"/><rect class="cls-2" x="443.56" y="574.95" width="38.03" height="19.38"/><rect class="cls-2" x="487.92" y="574.95" width="38.03" height="19.38"/><rect class="cls-2" x="532.28" y="574.95" width="38.03" height="19.38"/><rect class="cls-2" x="576.63" y="574.95" width="38.03" height="19.38"/><rect class="cls-2" x="620.99" y="574.95" width="38.03" height="19.38"/><rect class="cls-2" x="665.34" y="574.95" width="38.03" height="19.38"/><rect class="cls-2" x="709.7" y="574.95" width="38.03" height="19.38"/><rect class="cls-2" x="754.06" y="574.95" width="38.03" height="19.38"/><rect class="cls-2" x="798.41" y="574.95" width="38.03" height="19.38"/><rect class="cls-2" x="842.77" y="574.95" width="38.03" height="19.38"/><rect class="cls-2" x="887.13" y="574.95" width="38.03" height="19.38"/><rect class="cls-2" x="931.48" y="574.95" width="38.03" height="19.38"/><rect class="cls-2" x="975.84" y="574.95" width="38.03" height="19.38"/><rect class="cls-2" x="1020.19" y="574.95" width="38.03" height="19.38"/><rect class="cls-2" x="1064.55" y="574.95" width="38.03" height="19.38"/><rect class="cls-2" x="1108.91" y="574.95" width="38.03" height="19.38"/><rect class="cls-2" x="1153.26" y="574.95" width="38.03" height="19.38"/><rect class="cls-2" x="1197.62" y="574.95" width="38.03" height="19.38"/><rect class="cls-2" x="1241.97" y="574.95" width="38.03" height="19.38"/><rect class="cls-2" y="601.37" width="38.03" height="19.38"/><rect class="cls-2" x="44.36" y="601.37" width="38.03" height="19.38"/><rect class="cls-2" x="88.71" y="601.37" width="38.03" height="19.38"/><rect class="cls-2" x="133.07" y="601.37" width="38.03" height="19.38"/><rect class="cls-2" x="177.43" y="601.37" width="38.03" height="19.38"/><rect class="cls-2" x="221.78" y="601.37" width="38.03" height="19.38"/><rect class="cls-2" x="266.14" y="601.37" width="38.03" height="19.38"/><rect class="cls-2" x="310.49" y="601.37" width="38.03" height="19.38"/><rect class="cls-2" x="354.85" y="601.37" width="38.03" height="19.38"/><rect class="cls-2" x="399.21" y="601.37" width="38.03" height="19.38"/><rect class="cls-2" x="443.56" y="601.37" width="38.03" height="19.38"/><rect class="cls-2" x="487.92" y="601.37" width="38.03" height="19.38"/><rect class="cls-2" x="532.28" y="601.37" width="38.03" height="19.38"/><rect class="cls-2" x="576.63" y="601.37" width="38.03" height="19.38"/><rect class="cls-2" x="620.99" y="601.37" width="38.03" height="19.38"/><rect class="cls-2" x="665.34" y="601.37" width="38.03" height="19.38"/><rect class="cls-2" x="709.7" y="601.37" width="38.03" height="19.38"/><rect class="cls-2" x="754.06" y="601.37" width="38.03" height="19.38"/><rect class="cls-2" x="798.41" y="601.37" width="38.03" height="19.38"/><rect class="cls-2" x="842.77" y="601.37" width="38.03" height="19.38"/><rect class="cls-2" x="887.13" y="601.37" width="38.03" height="19.38"/><rect class="cls-2" x="931.48" y="601.37" width="38.03" height="19.38"/><rect class="cls-2" x="975.84" y="601.37" width="38.03" height="19.38"/><rect class="cls-2" x="1020.19" y="601.37" width="38.03" height="19.38"/><rect class="cls-2" x="1064.55" y="601.37" width="38.03" height="19.38"/><rect class="cls-2" x="1108.91" y="601.37" width="38.03" height="19.38"/><rect class="cls-2" x="1153.26" y="601.37" width="38.03" height="19.38"/><rect class="cls-2" x="1197.62" y="601.37" width="38.03" height="19.38"/><rect class="cls-2" x="1241.97" y="601.37" width="38.03" height="19.38"/><rect class="cls-2" y="627.79" width="38.03" height="19.38"/><rect class="cls-2" x="44.36" y="627.78" width="38.03" height="19.38"/><rect class="cls-2" x="88.71" y="627.78" width="38.03" height="19.38"/><rect class="cls-2" x="133.07" y="627.78" width="38.03" height="19.38"/><rect class="cls-2" x="177.43" y="627.78" width="38.03" height="19.38"/><rect class="cls-2" x="221.78" y="627.78" width="38.03" height="19.38"/><rect class="cls-2" x="266.14" y="627.78" width="38.03" height="19.38"/><rect class="cls-2" x="310.49" y="627.78" width="38.03" height="19.38"/><rect class="cls-2" x="354.85" y="627.78" width="38.03" height="19.38"/><rect class="cls-2" x="399.21" y="627.78" width="38.03" height="19.38"/><rect class="cls-2" x="443.56" y="627.78" width="38.03" height="19.38"/><rect class="cls-2" x="487.92" y="627.78" width="38.03" height="19.38"/><rect class="cls-2" x="532.28" y="627.78" width="38.03" height="19.38"/><rect class="cls-2" x="576.63" y="627.78" width="38.03" height="19.38"/><rect class="cls-2" x="620.99" y="627.78" width="38.03" height="19.38"/><rect class="cls-2" x="665.34" y="627.78" width="38.03" height="19.38"/><rect class="cls-2" x="709.7" y="627.78" width="38.03" height="19.38"/><rect class="cls-2" x="754.06" y="627.78" width="38.03" height="19.38"/><rect class="cls-2" x="798.41" y="627.78" width="38.03" height="19.38"/><rect class="cls-2" x="842.77" y="627.78" width="38.03" height="19.38"/><rect class="cls-2" x="887.13" y="627.78" width="38.03" height="19.38"/><rect class="cls-2" x="931.48" y="627.78" width="38.03" height="19.38"/><rect class="cls-2" x="975.84" y="627.78" width="38.03" height="19.38"/><rect class="cls-2" x="1020.19" y="627.78" width="38.03" height="19.38"/><rect class="cls-2" x="1064.55" y="627.78" width="38.03" height="19.38"/><rect class="cls-2" x="1108.91" y="627.78" width="38.03" height="19.38"/><rect class="cls-2" x="1153.26" y="627.78" width="38.03" height="19.38"/><rect class="cls-2" x="1197.62" y="627.78" width="38.03" height="19.38"/><rect class="cls-2" x="1241.97" y="627.79" width="38.03" height="19.38"/><rect class="cls-2" y="654.2" width="38.03" height="19.38"/><rect class="cls-2" x="44.36" y="654.2" width="38.03" height="19.38"/><rect class="cls-2" x="88.71" y="654.2" width="38.03" height="19.38"/><rect class="cls-2" x="133.07" y="654.2" width="38.03" height="19.38"/><rect class="cls-2" x="177.43" y="654.2" width="38.03" height="19.38"/><rect class="cls-2" x="221.78" y="654.2" width="38.03" height="19.38"/><rect class="cls-2" x="266.14" y="654.2" width="38.03" height="19.38"/><rect class="cls-2" x="310.49" y="654.2" width="38.03" height="19.38"/><rect class="cls-2" x="354.85" y="654.2" width="38.03" height="19.38"/><rect class="cls-2" x="399.21" y="654.2" width="38.03" height="19.38"/><rect class="cls-2" x="443.56" y="654.2" width="38.03" height="19.38"/><rect class="cls-2" x="487.92" y="654.2" width="38.03" height="19.38"/><rect class="cls-2" x="532.28" y="654.2" width="38.03" height="19.38"/><rect class="cls-2" x="576.63" y="654.2" width="38.03" height="19.38"/><rect class="cls-2" x="620.99" y="654.2" width="38.03" height="19.38"/><rect class="cls-2" x="665.34" y="654.2" width="38.03" height="19.38"/><rect class="cls-2" x="709.7" y="654.2" width="38.03" height="19.38"/><rect class="cls-2" x="754.06" y="654.2" width="38.03" height="19.38"/><rect class="cls-2" x="798.41" y="654.2" width="38.03" height="19.38"/><rect class="cls-2" x="842.77" y="654.2" width="38.03" height="19.38"/><rect class="cls-2" x="887.13" y="654.2" width="38.03" height="19.38"/><rect class="cls-2" x="931.48" y="654.2" width="38.03" height="19.38"/><rect class="cls-2" x="975.84" y="654.2" width="38.03" height="19.38"/><rect class="cls-2" x="1020.19" y="654.2" width="38.03" height="19.38"/><rect class="cls-2" x="1064.55" y="654.2" width="38.03" height="19.38"/><rect class="cls-2" x="1108.91" y="654.2" width="38.03" height="19.38"/><rect class="cls-2" x="1153.26" y="654.2" width="38.03" height="19.38"/><rect class="cls-2" x="1197.62" y="654.2" width="38.03" height="19.38"/><rect class="cls-2" x="1241.97" y="654.2" width="38.03" height="19.38"/><rect class="cls-2" y="680.62" width="38.03" height="19.38"/><rect class="cls-2" x="44.36" y="680.62" width="38.03" height="19.38"/><rect class="cls-2" x="88.71" y="680.62" width="38.03" height="19.38"/><rect class="cls-2" x="133.07" y="680.62" width="38.03" height="19.38"/><rect class="cls-2" x="177.43" y="680.62" width="38.03" height="19.38"/><rect class="cls-2" x="221.78" y="680.62" width="38.03" height="19.38"/><rect class="cls-2" x="266.14" y="680.62" width="38.03" height="19.38"/><rect class="cls-2" x="310.49" y="680.62" width="38.02" height="19.38"/><rect class="cls-2" x="354.85" y="680.62" width="38.02" height="19.38"/><rect class="cls-2" x="399.21" y="680.62" width="38.03" height="19.38"/><rect class="cls-2" x="443.56" y="680.62" width="38.03" height="19.38"/><rect class="cls-2" x="487.92" y="680.62" width="38.03" height="19.38"/><rect class="cls-2" x="532.27" y="680.62" width="38.03" height="19.38"/><rect class="cls-2" x="576.63" y="680.62" width="38.03" height="19.38"/><rect class="cls-2" x="620.99" y="680.62" width="38.03" height="19.38"/><rect class="cls-2" x="665.34" y="680.62" width="38.03" height="19.38"/><rect class="cls-2" x="709.7" y="680.62" width="38.03" height="19.38"/><rect class="cls-2" x="754.06" y="680.62" width="38.03" height="19.38"/><rect class="cls-2" x="798.41" y="680.62" width="38.03" height="19.38"/><rect class="cls-2" x="842.77" y="680.62" width="38.03" height="19.38"/><rect class="cls-2" x="887.13" y="680.62" width="38.03" height="19.38"/><rect class="cls-2" x="931.48" y="680.62" width="38.03" height="19.38"/><rect class="cls-2" x="975.84" y="680.62" width="38.03" height="19.38"/><rect class="cls-2" x="1020.19" y="680.62" width="38.03" height="19.38"/><rect class="cls-2" x="1064.55" y="680.62" width="38.03" height="19.38"/><rect class="cls-2" x="1108.91" y="680.62" width="38.03" height="19.38"/><rect class="cls-2" x="1153.26" y="680.62" width="38.03" height="19.38"/><rect class="cls-2" x="1197.62" y="680.62" width="38.03" height="19.38"/><rect class="cls-2" x="1241.97" y="680.62" width="38.03" height="19.38"/></svg>